<svg width="800" height="800" viewBox="0 0 800 800" fill="none" xmlns="http://www.w3.org/2000/svg">
<g clip-path="url(#clip0_919_33)">
<path d="M-130 752.8L-130 841L-41.6667 841M-130 752.8L-41.6667 752.8M-130 752.8L-130 664.6M-41.6667 752.8L-41.6667 841M-41.6667 752.8L-41.6667 664.6M-41.6667 752.8L46.6667 752.8M-41.6667 841L46.6667 841M-130 664.6L-41.6667 664.6M-130 664.6L-130 576.4M-41.6667 664.6L-41.6667 576.4M-41.6667 664.6L46.6667 664.6M-130 576.4L-41.6667 576.4M-130 576.4L-130 488.2M-41.6667 576.4L-41.6667 488.2M-41.6667 576.4L46.6667 576.4M-130 488.2L-41.6667 488.2M-130 488.2L-130 400M-41.6667 488.2L-41.6667 400M-41.6667 488.2L46.6667 488.2M-130 400L-41.6667 400M-130 400L-130 311.8M-41.6667 400L-41.6667 311.8M-41.6667 400L46.6667 400M-130 311.8L-41.6667 311.8M-130 311.8L-130 223.6M-41.6667 311.8L-41.6667 223.6M-41.6667 311.8L46.6666 311.8M-130 223.6L-41.6667 223.6M-130 223.6L-130 135.4M-41.6667 223.6L-41.6667 135.4M-41.6667 223.6L46.6666 223.6M-130 135.4L-41.6667 135.4M-130 135.4L-130 47.2M-41.6667 135.4L-41.6667 47.1999M-41.6667 135.4L46.6666 135.4M-130 47.2L-41.6667 47.1999M-130 47.2L-130 -41L-41.6667 -41M-41.6667 47.1999L-41.6667 -41M-41.6667 47.1999L46.6666 47.1999M-41.6667 -41L46.6666 -41M46.6667 752.8L46.6667 841M46.6667 752.8L46.6667 664.6M46.6667 752.8L135 752.8M46.6667 841L135 841M46.6667 664.6L46.6667 576.4M46.6667 664.6L135 664.6M46.6667 576.4L46.6667 488.2M46.6667 576.4L135 576.4M46.6667 488.2L46.6667 400M46.6667 488.2L135 488.2M46.6667 400L46.6666 311.8M46.6667 400L135 400M46.6666 311.8L46.6666 223.6M46.6666 311.8L135 311.8M46.6666 223.6L46.6666 135.4M46.6666 223.6L135 223.6M46.6666 135.4L46.6666 47.1999M46.6666 135.4L135 135.4M46.6666 47.1999L46.6666 -41M46.6666 47.1999L135 47.1999M46.6666 -41L135 -41M135 752.8L135 841M135 752.8L135 664.6M135 752.8L223.333 752.8M135 841L223.333 841M135 664.6L135 576.4M135 664.6L223.333 664.6M135 576.4L135 488.2M135 576.4L223.333 576.4M135 488.2L135 400M135 488.2L223.333 488.2M135 400L135 311.8M135 400L223.333 400M135 311.8L135 223.6M135 311.8L223.333 311.8M135 223.6L135 135.4M135 223.6L223.333 223.6M135 135.4L135 47.1999M135 135.4L223.333 135.4M135 47.1999L135 -41M135 47.1999L223.333 47.1999M135 -41L223.333 -41M223.333 752.8L223.333 841M223.333 752.8L223.333 664.6M223.333 752.8L311.667 752.8M223.333 841L311.667 841M223.333 664.6L223.333 576.4M223.333 664.6L311.667 664.6M223.333 576.4L223.333 488.2M223.333 576.4L311.667 576.4M223.333 488.2L223.333 400M223.333 488.2L311.667 488.2M223.333 400L223.333 311.8M223.333 400L311.667 400M223.333 311.8L223.333 223.6M223.333 311.8L311.667 311.8M223.333 223.6L223.333 135.4M223.333 223.6L311.667 223.6M223.333 135.4L223.333 47.1999M223.333 135.4L311.667 135.4M223.333 47.1999L223.333 -41M223.333 47.1999L311.667 47.1999M223.333 -41L311.667 -41M311.667 752.8L311.667 841M311.667 752.8L311.667 664.6M311.667 752.8L400 752.8M311.667 841L400 841M311.667 664.6L311.667 576.4M311.667 664.6L400 664.6M311.667 576.4L311.667 488.2M311.667 576.4L400 576.4M311.667 488.2L311.667 400M311.667 488.2L400 488.2M311.667 400L311.667 311.8M311.667 400L400 400M311.667 311.8L311.667 223.6M311.667 311.8L400 311.8M311.667 223.6L311.667 135.4M311.667 223.6L400 223.6M311.667 135.4L311.667 47.1999M311.667 135.4L400 135.4M311.667 47.1999L311.667 -41M311.667 47.1999L400 47.1999M311.667 -41L400 -41M400 752.8L400 841M400 752.8L400 664.6M400 752.8L488.333 752.8M400 841L488.333 841M400 664.6L400 576.4M400 664.6L488.333 664.6M400 576.4L400 488.2M400 576.4L488.333 576.4M400 488.2L400 400M400 488.2L488.333 488.2M400 400L400 311.8M400 400L488.333 400M400 311.8L400 223.6M400 311.8L488.333 311.8M400 223.6L400 135.4M400 223.6L488.333 223.6M400 135.4L400 47.1999M400 135.4L488.333 135.4M400 47.1999L400 -41M400 47.1999L488.333 47.1999M400 -41L488.333 -41M488.333 752.8L488.333 841M488.333 752.8L488.333 664.6M488.333 752.8L576.667 752.8M488.333 841L576.667 841M488.333 664.6L488.333 576.4M488.333 664.6L576.667 664.6M488.333 576.4L488.333 488.2M488.333 576.4L576.667 576.4M488.333 488.2L488.333 400M488.333 488.2L576.667 488.2M488.333 400L488.333 311.8M488.333 400L576.667 400M488.333 311.8L488.333 223.6M488.333 311.8L576.667 311.8M488.333 223.6L488.333 135.4M488.333 223.6L576.667 223.6M488.333 135.4L488.333 47.1999M488.333 135.4L576.667 135.4M488.333 47.1999L488.333 -41M488.333 47.1999L576.667 47.1999M488.333 -41L576.667 -41M576.667 752.8L576.667 841M576.667 752.8L576.667 664.6M576.667 752.8L665 752.8M576.667 841L665 841M576.667 664.6L576.667 576.4M576.667 664.6L665 664.6M576.667 576.4L576.667 488.2M576.667 576.4L665 576.4M576.667 488.2L576.667 400M576.667 488.2L665 488.2M576.667 400L576.667 311.8M576.667 400L665 400M576.667 311.8L576.667 223.6M576.667 311.8L665 311.8M576.667 223.6L576.667 135.4M576.667 223.6L665 223.6M576.667 135.4L576.667 47.1999M576.667 135.4L665 135.4M576.667 47.1999L576.667 -41M576.667 47.1999L665 47.1999M576.667 -41L665 -41M665 752.8L665 841M665 752.8L665 664.6M665 752.8L753.333 752.8M665 841L753.333 841M665 664.6L665 576.4M665 664.6L753.333 664.6M665 576.4L665 488.2M665 576.4L753.333 576.4M665 488.2L665 400M665 488.2L753.333 488.2M665 400L665 311.8M665 400L753.333 400M665 311.8L665 223.6M665 311.8L753.333 311.8M665 223.6L665 135.4M665 223.6L753.333 223.6M665 135.4L665 47.1999M665 135.4L753.333 135.4M665 47.1999L665 -41M665 47.1999L753.333 47.1999M665 -41L753.333 -41M753.333 752.8L753.333 841M753.333 752.8L753.333 664.6M753.333 752.8L841.667 752.8M753.333 841L841.667 841M753.333 664.6L753.333 576.4M753.333 664.6L841.667 664.6M753.333 576.4L753.333 488.2M753.333 576.4L841.667 576.4M753.333 488.2L753.333 400M753.333 488.2L841.667 488.2M753.333 400L753.333 311.8M753.333 400L841.667 400M753.333 311.8L753.333 223.6M753.333 311.8L841.667 311.8M753.333 223.6L753.333 135.4M753.333 223.6L841.667 223.6M753.333 135.4L753.333 47.1999M753.333 135.4L841.667 135.4M753.333 47.1999L753.333 -41M753.333 47.1999L841.667 47.1999M753.333 -41L841.667 -41M841.667 752.8L841.667 841M841.667 752.8L841.667 664.6M841.667 752.8L930 752.8M841.667 841L930 841L930 752.8M841.667 664.6L841.667 576.4M841.667 664.6L930 664.6M841.667 576.4L841.667 488.2M841.667 576.4L930 576.4M841.667 488.2L841.667 400M841.667 488.2L930 488.2M841.667 400L841.667 311.8M841.667 400L930 400M841.667 311.8L841.667 223.6M841.667 311.8L930 311.8M841.667 223.6L841.667 135.4M841.667 223.6L930 223.6M841.667 135.4L841.667 47.1999M841.667 135.4L930 135.4M841.667 47.1999L841.667 -41M841.667 47.1999L930 47.1999M841.667 -41L930 -41L930 47.1999M930 752.8L930 664.6M930 664.6L930 576.4M930 576.4L930 488.2M930 488.2L930 400M930 400L930 311.8M930 311.8L930 223.6M930 223.6L930 135.4M930 135.4L930 47.1999" stroke="url(#paint0_radial_919_33)"/>
</g>
<defs>
<radialGradient id="paint0_radial_919_33" cx="0" cy="0" r="1" gradientUnits="userSpaceOnUse" gradientTransform="translate(400 400) rotate(90) scale(441 530)">
<stop stop-color="#3D0066"/>
<stop offset="1" stop-color="#7A00CC" stop-opacity="0"/>
</radialGradient>
<clipPath id="clip0_919_33">
<rect width="800" height="800" fill="white"/>
</clipPath>
</defs>
</svg>
