<svg width="242" height="242" viewBox="0 0 242 242" fill="none" xmlns="http://www.w3.org/2000/svg">
<path d="M145.03 189.245C149.474 193.931 154.83 197.901 160.993 200.862C188.14 213.902 220.718 202.467 233.758 175.32C246.798 148.174 235.363 115.596 208.216 102.555C201.961 99.5506 195.415 97.8448 188.884 97.3323C193.943 92.7381 198.217 87.1106 201.357 80.5753C214.397 53.4287 202.961 20.8507 175.815 7.81039C148.668 -5.22987 116.09 6.20572 103.05 33.3523C99.8189 40.0782 98.0899 47.1412 97.7314 54.1585C93.0655 48.9049 87.3014 44.4722 80.5754 41.2413C53.4287 28.201 20.8507 39.6366 7.81046 66.7833C-5.22977 93.9299 6.20573 126.508 33.3524 139.548C39.9806 142.732 46.936 144.457 53.8527 144.85C48.8407 149.426 44.6054 155.019 41.4886 161.508C28.4484 188.655 39.8839 221.233 67.0306 234.273C94.1773 247.313 126.755 235.878 139.796 208.731C142.824 202.427 144.533 195.826 145.03 189.245Z" fill="#FDC500" stroke="#3D0066" stroke-width="4"/>
</svg>
