<svg width="250" height="250" viewBox="0 0 250 250" fill="none" xmlns="http://www.w3.org/2000/svg">
<path fill-rule="evenodd" clip-rule="evenodd" d="M146.453 18.2369C141.616 7.17952 133.808 0 125 0C116.279 0 108.538 7.03816 103.692 17.9098C95.1159 9.89383 85.3871 6.4564 77.4101 9.76071C69.3889 13.0833 64.9351 22.4776 64.5822 34.3011C53.3784 29.9414 42.8228 30.4004 36.6116 36.6116C30.4008 42.8228 29.9416 53.3786 34.3011 64.5824C22.4774 64.9354 13.0833 69.3891 9.76071 77.4103C6.4564 85.3873 9.89366 95.1163 17.9096 103.692C7.03799 108.539 0 116.279 0 125C0 133.809 7.17935 141.616 18.2369 146.453C9.98802 155.112 6.4122 164.996 9.76107 173.081C13.0661 181.06 22.3796 185.509 34.1151 185.903C29.9563 196.926 30.4906 207.267 36.612 213.388C42.8207 219.597 53.371 220.058 64.5703 215.704C64.8144 227.755 69.2795 237.363 77.4101 240.731C85.4355 244.055 95.2341 240.556 103.847 232.436C108.703 243.111 116.372 250 125 250C133.716 250 141.453 242.97 146.3 232.108C154.996 240.461 164.949 244.099 173.081 240.731C181.17 237.38 185.631 227.854 185.917 215.89C196.934 220.043 207.27 219.507 213.388 213.388C219.507 207.27 220.044 196.934 215.89 185.917C227.855 185.631 237.38 181.17 240.731 173.081C244.099 164.949 240.461 154.996 232.108 146.3C242.97 141.453 250 133.716 250 125C250 116.371 243.111 108.703 232.436 103.847C240.556 95.2338 244.055 85.4357 240.731 77.4103C237.363 69.2795 227.755 64.8143 215.704 64.5703C220.058 53.371 219.597 42.8205 213.388 36.6116C207.267 30.4904 196.926 29.9562 185.903 34.1151C185.509 22.3792 181.06 13.0657 173.081 9.76071C164.996 6.41185 155.112 9.98784 146.453 18.2369ZM132.526 87.2698C130.14 88.448 127.614 89.0805 125 89.0805C122.513 89.0805 120.105 88.5078 117.821 87.4371C116.055 89.4728 113.943 91.0481 111.5 92.0601C108.995 93.0977 106.317 93.4704 103.557 93.2456C102.7 95.6652 101.389 97.813 99.601 99.601C97.813 101.389 95.6656 102.7 93.2459 103.557C93.4708 106.317 93.0979 108.995 92.0603 111.5C91.0483 113.943 89.473 116.055 87.4371 117.822C88.5076 120.105 89.0805 122.513 89.0805 125C89.0805 127.614 88.448 130.14 87.2698 132.526C89.3867 134.321 91.021 136.482 92.0607 138.991C93.0379 141.351 93.4255 143.864 93.2793 146.455C95.6852 147.312 97.8215 148.619 99.6013 150.399C101.506 152.304 102.87 154.617 103.72 157.233C106.423 157.035 109.044 157.414 111.5 158.431C113.804 159.385 115.813 160.84 117.515 162.71C119.89 161.545 122.401 160.92 125 160.92C127.723 160.92 130.35 161.605 132.823 162.88C134.558 160.928 136.618 159.414 138.991 158.431C141.301 157.474 143.757 157.083 146.29 157.204C147.14 154.6 148.501 152.297 150.399 150.399C152.297 148.501 154.6 147.14 157.204 146.29C157.083 143.757 157.475 141.301 158.431 138.991C159.414 136.618 160.928 134.558 162.88 132.823C161.605 130.35 160.92 127.723 160.92 125C160.92 122.401 161.544 119.889 162.71 117.515C160.84 115.813 159.385 113.804 158.431 111.5C157.414 109.044 157.035 106.423 157.233 103.72C154.617 102.87 152.304 101.506 150.399 99.6011C148.619 97.8215 147.312 95.6851 146.455 93.2789C143.864 93.4252 141.351 93.0378 138.991 92.0603C136.482 91.0208 134.321 89.3867 132.526 87.2698Z" fill="#D9AFF5"/>
</svg>
