<svg width="212" height="205" viewBox="0 0 212 205" fill="none" xmlns="http://www.w3.org/2000/svg">
<path d="M132.295 9.62608L132.084 4.88804L129.532 8.88576L103.309 49.9679L73.0629 11.9363L70.1213 8.23752L70.3913 12.9557L73.1767 61.6243L26.3987 48.7696L21.8681 47.5245L24.8392 51.1645L55.5769 88.8209L10.1291 106.063L5.73601 107.73L10.2822 108.917L57.2205 121.174L30.4739 161.929L27.881 165.88L32.2779 164.148L77.4874 146.335L79.6564 195.024L79.8675 199.762L82.4193 195.765L108.643 154.683L138.889 192.714L141.83 196.413L141.56 191.695L138.775 143.026L185.553 155.881L190.083 157.126L187.112 153.486L156.375 115.83L201.822 98.587L206.215 96.9203L201.669 95.7332L154.731 83.4767L181.478 42.7211L184.07 38.7701L179.674 40.5026L134.464 58.316L132.295 9.62608Z" fill="#FDC500" stroke="#3D0066" stroke-width="3"/>
</svg>
