<svg width="134" height="134" viewBox="0 0 134 134" fill="none" xmlns="http://www.w3.org/2000/svg">
<path d="M87.2645 3.1427L87.2645 3.14218C87.3347 2.42735 86.8882 1.7631 86.1998 1.55808C85.5115 1.35306 84.7743 1.66481 84.4419 2.30154L84.4417 2.302L84.4401 2.30512L84.4327 2.31924L84.4014 2.37853C84.3733 2.43168 84.3307 2.51181 84.2741 2.61742C84.1609 2.82865 83.9915 3.14179 83.769 3.54488C83.3242 4.35114 82.6676 5.51678 81.825 6.9463C80.1389 9.80666 77.712 13.7166 74.7497 17.9147C68.784 26.3688 60.7984 35.7689 52.4451 40.2883C44.0919 44.8077 31.8544 46.349 21.5139 46.7171C16.3792 46.8999 11.7785 46.792 8.46176 46.6384C6.80417 46.5615 5.46923 46.4734 4.55095 46.4046C4.09185 46.3703 3.73704 46.3408 3.49827 46.32C3.3789 46.3096 3.28854 46.3014 3.22867 46.2958L3.16193 46.2896L3.14606 46.288L3.14257 46.2877L3.14205 46.2876C2.42721 46.2175 1.76296 46.6639 1.55794 47.3523C1.35292 48.0407 1.66467 48.7778 2.30141 49.1102L2.30187 49.1104L2.30498 49.1121L2.3191 49.1195L2.3784 49.1507C2.43154 49.1789 2.51167 49.2214 2.61728 49.278C2.82852 49.3913 3.14165 49.5607 3.54474 49.7831C4.351 50.228 5.51665 50.8846 6.94616 51.7272C9.80653 53.4132 13.7165 55.8401 17.9145 58.8025C26.3686 64.7681 35.7688 72.7538 40.2881 81.107C44.8075 89.4602 46.3488 101.698 46.7169 112.038C46.8997 117.173 46.7919 121.774 46.6382 125.09C46.5614 126.748 46.4733 128.083 46.4045 129.001C46.3701 129.46 46.3406 129.815 46.3199 130.054C46.3095 130.173 46.3012 130.264 46.2957 130.323L46.2894 130.39L46.2879 130.406L46.2876 130.41L46.2875 130.41C46.2174 131.125 46.6638 131.789 47.3522 131.994C48.0406 132.199 48.7777 131.887 49.1101 131.251L49.1103 131.25L49.1119 131.247L49.1193 131.233L49.1506 131.174C49.1787 131.121 49.2213 131.04 49.2779 130.935C49.3911 130.724 49.5606 130.411 49.783 130.007C50.2279 129.201 50.8844 128.036 51.7271 126.606C53.4131 123.746 55.84 119.836 58.8023 115.638C64.768 107.184 72.7536 97.7834 81.1069 93.264C89.4601 88.7446 101.698 87.2033 112.038 86.8352C117.173 86.6524 121.774 86.7603 125.09 86.9139C126.748 86.9907 128.083 87.0789 129.001 87.1476C129.46 87.182 129.815 87.2115 130.054 87.2323C130.173 87.2427 130.263 87.2509 130.323 87.2565L130.39 87.2627L130.406 87.2643L130.409 87.2646L130.41 87.2646C131.125 87.3348 131.789 86.8884 131.994 86.2C132.199 85.5116 131.887 84.7745 131.251 84.4421L131.25 84.4418L131.247 84.4402L131.233 84.4328L131.174 84.4015C131.12 84.3734 131.04 84.3309 130.935 84.2743C130.723 84.161 130.41 83.9916 130.007 83.7692C129.201 83.3243 128.035 82.6677 126.606 81.8251C123.745 80.1391 119.836 77.7122 115.637 74.7498C107.183 68.7841 97.7833 60.7985 93.2639 52.4453C88.7445 44.0921 87.2032 31.8545 86.8351 21.5141C86.6523 16.3793 86.7601 11.7787 86.9138 8.4619C86.9906 6.8043 87.0788 5.46937 87.1475 4.55108C87.1819 4.09199 87.2114 3.73718 87.2322 3.49841C87.2426 3.37903 87.2508 3.28867 87.2563 3.22881L87.2626 3.16207L87.2641 3.1462L87.2645 3.1427Z" fill="#D9AFF5" stroke="#3D0066" stroke-width="3" stroke-miterlimit="16" stroke-linejoin="round"/>
</svg>
