<svg width="89" height="89" viewBox="0 0 89 89" fill="none" xmlns="http://www.w3.org/2000/svg">
<path d="M43.3769 4.03035L42.9788 2.58414L41.5326 2.98222L26.2224 7.19642L24.7762 7.5945L25.1742 9.04071L29.6617 25.3436L14.9607 16.9888L13.6566 16.2477L12.9154 17.5518L5.06937 31.3577L4.32822 32.6618L5.63233 33.4029L20.3334 41.7578L4.03033 46.2453L2.58412 46.6434L2.9822 48.0896L7.1964 63.3998L7.59448 64.846L9.04069 64.4479L25.3436 59.9605L16.9888 74.6615L16.2476 75.9657L17.5517 76.7068L31.3576 84.5529L32.6617 85.294L33.4029 83.9899L41.7578 69.2887L46.2453 85.5918L46.6433 87.038L48.0895 86.64L63.3998 82.4258L64.846 82.0277L64.4479 80.5815L59.9604 64.2784L74.6616 72.6333L75.9657 73.3744L76.7069 72.0703L84.5529 58.2644L85.2941 56.9603L83.99 56.2192L69.2889 47.8644L85.5918 43.3769L87.038 42.9788L86.64 41.5326L82.4257 26.2224L82.0277 24.7762L80.5815 25.1743L64.2783 29.6618L72.6332 14.9606L73.3744 13.6565L72.0702 12.9154L58.2644 5.0693L56.9603 4.32816L56.2191 5.63227L47.8643 20.3333L43.3769 4.03035Z" fill="#FDC500" stroke="#3D0066" stroke-width="3"/>
</svg>
